<svg width="24" height="24" viewBox="-2 -2 26 26" fill="none" xmlns="http://www.w3.org/2000/svg">
<path fill-rule="evenodd" clip-rule="evenodd" d="M17.2264 6.73077C17.4169 7.19491 17.8683 7.49854 18.37 7.5C19.0509 7.50549 19.6 8.05905 19.6 8.74V10.88C19.6 11.5648 19.0448 12.12 18.36 12.12C17.8583 12.1215 17.4069 12.4251 17.2164 12.8892C17.026 13.3534 17.134 13.8865 17.49 14.24C17.9676 14.7295 17.9676 15.5105 17.49 16L15.99 17.5C15.5005 17.9776 14.7194 17.9776 14.23 17.5C14.0042 17.2608 13.6889 17.1267 13.36 17.13C13.0294 17.1273 12.7114 17.2568 12.4767 17.4896C12.242 17.7225 12.11 18.0394 12.11 18.37C12.11 19.0548 11.5548 19.61 10.87 19.61H8.73C8.04517 19.61 7.49 19.0548 7.49 18.37C7.49001 18.0394 7.358 17.7225 7.12328 17.4896C6.88857 17.2568 6.5706 17.1273 6.24 17.13C5.91111 17.1267 5.59576 17.2608 5.37 17.5C4.88055 17.9776 4.09945 17.9776 3.61 17.5L2.11 16C1.63237 15.5105 1.63237 14.7295 2.11 14.24C2.46605 13.8865 2.57402 13.3534 2.38355 12.8892C2.19308 12.4251 1.7417 12.1215 1.24 12.12C0.911131 12.12 0.595733 11.9894 0.363188 11.7568C0.130642 11.5243 0 11.2089 0 10.88V8.74C0 8.05517 0.555167 7.5 1.24 7.5C1.7417 7.49854 2.19308 7.19491 2.38355 6.73077C2.57402 6.26664 2.46605 5.73346 2.11 5.38C1.63237 4.89055 1.63237 4.10945 2.11 3.62L3.61 2.12C4.09945 1.64237 4.88055 1.64237 5.37 2.12C5.59576 2.35919 5.91111 2.49331 6.24 2.49C6.57234 2.49269 6.89185 2.36186 7.12685 2.12685C7.36186 1.89185 7.49269 1.57234 7.49 1.24C7.49 0.555167 8.04517 0 8.73 0H10.88C11.5648 0 12.12 0.555167 12.12 1.24C12.1173 1.57234 12.2481 1.89185 12.4831 2.12685C12.7182 2.36186 13.0377 2.49269 13.37 2.49C13.6989 2.49331 14.0142 2.35919 14.24 2.12C14.7294 1.64237 15.5105 1.64237 16 2.12L17.5 3.62C17.9776 4.10945 17.9776 4.89055 17.5 5.38C17.144 5.73346 17.036 6.26664 17.2264 6.73077ZM15.8 12.31C16.1904 11.3582 17.0843 10.7081 18.11 10.63L18.08 8.99C17.0654 8.90103 16.1855 8.2527 15.8 7.31C15.4224 6.36508 15.5953 5.28901 16.25 4.51L15.1 3.36C14.6123 3.76841 13.9961 3.99152 13.36 3.99C11.9429 3.98653 10.7586 2.91035 10.62 1.5H8.98C8.84585 2.9126 7.65895 3.9912 6.24 3.99C5.6039 3.99152 4.98768 3.76841 4.5 3.36L3.38 4.51C4.02453 5.29496 4.18586 6.37048 3.8 7.31C3.41447 8.2527 2.53459 8.90103 1.52 8.99V10.63C2.53459 10.719 3.41447 11.3673 3.8 12.31C4.17764 13.2549 4.0047 14.331 3.35 15.11L4.5 16.26C4.98768 15.8516 5.6039 15.6285 6.24 15.63C7.65715 15.6335 8.84137 16.7096 8.98 18.12H10.62C10.745 16.7029 11.9374 15.6193 13.36 15.63C13.9961 15.6285 14.6123 15.8516 15.1 16.26L16.22 15.11C15.5755 14.325 15.4141 13.2495 15.8 12.31Z" fill="white"/>
<path fill-rule="evenodd" clip-rule="evenodd" d="M6.33984 9.80998C6.33984 7.89907 7.88894 6.34998 9.79984 6.34998C10.7175 6.34998 11.5976 6.71451 12.2464 7.36339C12.8953 8.01226 13.2598 8.89233 13.2598 9.80998C13.2598 11.7209 11.7107 13.27 9.79984 13.27C7.88894 13.27 6.33984 11.7209 6.33984 9.80998ZM7.79984 9.80997C7.79984 10.9145 8.69528 11.81 9.79985 11.81C10.9044 11.81 11.7998 10.9145 11.7998 9.80997C11.7998 8.70541 10.9044 7.80997 9.79985 7.80997C8.69528 7.80997 7.79984 8.70541 7.79984 9.80997Z" fill="white"/>
</svg>
