<svg width="24" height="24" viewBox="0 0 24 24" fill="none" xmlns="http://www.w3.org/2000/svg">
<path d="M11.4798 19.7301C11.2828 19.7304 11.0931 19.6553 10.9498 19.5201L3.94981 12.5201C3.65736 12.2272 3.65736 11.7529 3.94981 11.4601L10.9498 4.46006C11.2426 4.16761 11.717 4.16761 12.0098 4.46006C12.1528 4.59935 12.2334 4.79048 12.2334 4.99006C12.2334 5.18965 12.1528 5.38077 12.0098 5.52006L5.54981 12.0001L11.9998 18.4501C12.1428 18.5894 12.2234 18.7805 12.2234 18.9801C12.2234 19.1797 12.1428 19.3708 11.9998 19.5101C11.8643 19.6521 11.6761 19.7318 11.4798 19.7301Z" fill="white"/>
<path d="M19.52 12.75H4.52002C4.10581 12.75 3.77002 12.4142 3.77002 12C3.77002 11.5858 4.10581 11.25 4.52002 11.25H19.52C19.9342 11.25 20.27 11.5858 20.27 12C20.27 12.4142 19.9342 12.75 19.52 12.75Z" fill="white"/>
<path d="M11.4798 19.7301C11.2828 19.7304 11.0931 19.6553 10.9498 19.5201L3.94981 12.5201C3.65736 12.2272 3.65736 11.7529 3.94981 11.4601L10.9498 4.46006C11.2426 4.16761 11.717 4.16761 12.0098 4.46006C12.1528 4.59935 12.2334 4.79048 12.2334 4.99006C12.2334 5.18965 12.1528 5.38077 12.0098 5.52006L5.54981 12.0001L11.9998 18.4501C12.1428 18.5894 12.2234 18.7805 12.2234 18.9801C12.2234 19.1797 12.1428 19.3708 11.9998 19.5101C11.8643 19.6521 11.6761 19.7318 11.4798 19.7301Z" fill="white"/>
<path d="M19.52 12.75H4.52002C4.10581 12.75 3.77002 12.4142 3.77002 12C3.77002 11.5858 4.10581 11.25 4.52002 11.25H19.52C19.9342 11.25 20.27 11.5858 20.27 12C20.27 12.4142 19.9342 12.75 19.52 12.75Z" fill="white"/>
</svg>
