<svg width="24" height="24" viewBox="0 0 24 24" fill="none" xmlns="http://www.w3.org/2000/svg">
<path d="M15.9101 6.52757H17.3221C17.5043 6.52761 17.6789 6.45794 17.8064 6.33428C17.9339 6.21063 18.0036 6.04341 17.9999 5.87034V3.72429C18.0011 3.38866 17.7307 3.10844 17.3786 3.08048C17.3786 3.08048 16.376 3 15.1476 3C12.1258 3 10.4596 4.70343 10.4596 7.78838V10.1624H7.67793C7.49701 10.1587 7.32234 10.2254 7.19438 10.3469C7.06642 10.4685 6.99626 10.6344 7.00015 10.8063V12.7645C6.99626 12.9364 7.06642 13.1023 7.19438 13.2239C7.32234 13.3454 7.49701 13.412 7.67793 13.4083H10.4173V21H14.5404V13.4083H17.0256C17.3668 13.4051 17.6546 13.1659 17.7033 12.845L17.9575 10.8867C17.9834 10.7014 17.9213 10.5147 17.788 10.377C17.6587 10.2397 17.4737 10.1616 17.2797 10.1624H14.5404V7.86885C14.54 7.14352 15.1468 6.54933 15.9101 6.52757Z" fill="white"/>
</svg>
