<svg width="24" height="24" viewBox="0 0 24 24" fill="none" xmlns="http://www.w3.org/2000/svg">
<path d="M14 11.9976C14 9.5059 11.683 7 8.85714 7C8.52241 7 7.41904 7.00001 7.14286 7.00001C4.30254 7.00001 2 9.23752 2 11.9976C2 14.376 3.70973 16.3664 6 16.8714C6.36756 16.9525 6.75006 16.9952 7.14286 16.9952" stroke="white" stroke-width="1.5" stroke-linecap="round" stroke-linejoin="round"/>
<path d="M10 11.9975C10 14.4892 12.317 16.9951 15.1429 16.9951C15.4776 16.9951 16.581 16.9951 16.8571 16.9951C19.6975 16.9951 22 14.7576 22 11.9975C22 9.61908 20.2903 7.62872 18 7.12371C17.6324 7.04266 17.2499 6.99987 16.8571 6.99987" stroke="white" stroke-width="1.5" stroke-linecap="round" stroke-linejoin="round"/>
</svg>
