<svg width="17" height="17" viewBox="0 0 17 17" fill="none" xmlns="http://www.w3.org/2000/svg">
<mask id="mask0_102_645" style="mask-type:luminance" maskUnits="userSpaceOnUse" x="6" y="5" width="11" height="12">
<path fill-rule="evenodd" clip-rule="evenodd" d="M6.03955 5.06567H16.9932V17H6.03955V5.06567Z" fill="white"/>
</mask>
<g mask="url(#mask0_102_645)">
<path fill-rule="evenodd" clip-rule="evenodd" d="M16.9877 16.4909C16.9901 14.5797 16.9998 12.6684 16.9843 10.7574C16.9774 9.92027 16.9474 9.08097 16.7715 8.2571C16.4831 6.90632 15.8341 5.85173 14.5449 5.35996C13.6848 5.03191 12.7857 5.01079 11.8875 5.13796C11.1331 5.24479 10.4381 5.53217 9.8049 6.06632C9.8049 5.87199 9.80423 5.7431 9.80504 5.61438C9.80698 5.32529 9.67245 5.19461 9.39529 5.19593C8.41035 5.20053 7.4254 5.19936 6.44038 5.19671C6.16925 5.19593 6.03918 5.30791 6.03955 5.61266C6.04475 9.28006 6.04282 12.9475 6.04297 16.6149C6.04297 16.7555 6.02446 16.9051 6.18723 16.9744C6.2044 16.9971 9.76038 17.0056 9.76023 16.9824C9.99346 16.8777 9.92173 16.6566 9.92211 16.4766C9.92538 14.6678 9.91452 12.8589 9.92426 11.0501C9.92723 10.4844 9.94812 9.91303 10.1924 9.38635C10.4819 8.76227 11.081 8.49188 11.9249 8.60253C12.5055 8.67858 12.8761 9.0717 12.9914 9.75656C13.0341 10.0096 13.0661 10.2683 13.0676 10.5246C13.0789 12.5142 13.0804 14.5039 13.0887 16.4935C13.0895 16.6773 13.0344 16.8942 13.271 16.9866C13.2629 17.0127 16.8434 16.9968 16.8444 16.9716C17.037 16.8592 16.9874 16.6633 16.9877 16.4909Z" fill="white"/>
</g>
<path fill-rule="evenodd" clip-rule="evenodd" d="M3.55834 5.00004C2.51861 5.00876 1.47864 5.00685 0.438822 5.00107C0.145024 4.99933 -0.000534513 5.10075 1.47479e-06 5.43514C0.00650989 9.16379 0.00398309 12.8925 0.00474879 16.621C0.00482536 16.763 -0.0169204 16.919 0.157888 16.9836C0.16455 17.0064 3.83017 17.0049 3.84004 16.9824C4.033 16.9072 3.9941 16.7323 3.99418 16.5811C3.99586 12.8787 3.99288 9.17631 4 5.47397C4.00053 5.13799 3.88553 4.99727 3.55834 5.00004Z" fill="white"/>
<path fill-rule="evenodd" clip-rule="evenodd" d="M1.99997 0C0.895465 0 0 0.895465 0 1.99997C0 3.1046 0.895465 4 1.99997 4C3.10453 4 4 3.1046 4 1.99997C4 0.895465 3.10453 0 1.99997 0Z" fill="white"/>
</svg>
