<svg width="16" height="16" viewBox="0 0 16 16" fill="none" xmlns="http://www.w3.org/2000/svg">
<path fill-rule="evenodd" clip-rule="evenodd" d="M0.416992 7.66536C0.416992 4.02949 3.36445 1.08203 7.00033 1.08203C10.6362 1.08203 13.5837 4.02949 13.5837 7.66536C13.5837 11.3012 10.6362 14.2487 7.00033 14.2487C3.36445 14.2487 0.416992 11.3012 0.416992 7.66536ZM7.00033 2.58203C4.19288 2.58203 1.91699 4.85792 1.91699 7.66536C1.91699 10.4728 4.19288 12.7487 7.00033 12.7487C9.80777 12.7487 12.0837 10.4728 12.0837 7.66536C12.0837 4.85792 9.80777 2.58203 7.00033 2.58203ZM12.1771 12.135C12.47 11.8421 12.9449 11.8421 13.2378 12.135L15.1973 14.0946C15.4902 14.3875 15.4902 14.8624 15.1973 15.1553C14.9044 15.4481 14.4296 15.4481 14.1367 15.1553L12.1771 13.1957C11.8842 12.9028 11.8842 12.4279 12.1771 12.135Z" fill="#E30513"/>
</svg>
