<svg width="24" height="24" viewBox="0 0 24 24" fill="none" xmlns="http://www.w3.org/2000/svg">
<path d="M5.00001 12.2299C4.80646 12.223 4.62336 12.1404 4.49001 11.9999C4.34648 11.8589 4.26562 11.6661 4.26562 11.4649C4.26562 11.2637 4.34648 11.071 4.49001 10.9299L11.49 3.92994C11.7871 3.64803 12.2529 3.64803 12.55 3.92994L19.55 10.9299C19.7411 11.1264 19.8129 11.41 19.7383 11.6738C19.6637 11.9375 19.4541 12.1415 19.1883 12.2087C18.9226 12.276 18.6411 12.1964 18.45 11.9999L12 5.54994L5.55001 11.9999C5.40703 12.1503 5.20748 12.2338 5.00001 12.2299Z" fill="white"/>
<path d="M12 20.27C11.588 20.2646 11.2554 19.932 11.25 19.52V4.52002C11.25 4.10581 11.5858 3.77002 12 3.77002C12.4142 3.77002 12.75 4.10581 12.75 4.52002V19.52C12.7446 19.932 12.412 20.2646 12 20.27Z" fill="white"/>
<path d="M5.00001 12.2299C4.80646 12.223 4.62336 12.1404 4.49001 11.9999C4.34648 11.8589 4.26562 11.6661 4.26562 11.4649C4.26562 11.2637 4.34648 11.071 4.49001 10.9299L11.49 3.92994C11.7871 3.64803 12.2529 3.64803 12.55 3.92994L19.55 10.9299C19.7411 11.1264 19.8129 11.41 19.7383 11.6738C19.6637 11.9375 19.4541 12.1415 19.1883 12.2087C18.9226 12.276 18.6411 12.1964 18.45 11.9999L12 5.54994L5.55001 11.9999C5.40703 12.1503 5.20748 12.2338 5.00001 12.2299Z" fill="white"/>
<path d="M12 20.27C11.588 20.2646 11.2554 19.932 11.25 19.52V4.52002C11.25 4.10581 11.5858 3.77002 12 3.77002C12.4142 3.77002 12.75 4.10581 12.75 4.52002V19.52C12.7446 19.932 12.412 20.2646 12 20.27Z" fill="white"/>
</svg>
