<svg width="16" height="16" viewBox="0 0 16 16" fill="none" xmlns="http://www.w3.org/2000/svg">
<path d="M15.4999 11.7502V14.75C15.4999 14.9489 15.4209 15.1398 15.2803 15.2804C15.1397 15.421 14.9489 15.5 14.75 15.5H1.24996C1.05107 15.5 0.860225 15.421 0.7196 15.2804C0.578975 15.1398 0.5 14.9489 0.5 14.75V1.25005C0.5 1.05116 0.578975 0.860315 0.7196 0.71969C0.860225 0.579065 1.05106 0.50009 1.24996 0.50009H4.24985C4.51779 0.50009 4.76539 0.642975 4.89936 0.875004C5.03333 1.10704 5.03333 1.39305 4.89936 1.62509C4.76539 1.85712 4.51779 2 4.24985 2H1.99985V14.0002H14.0001V11.7502C14.0001 11.4823 14.1429 11.2347 14.375 11.1007C14.607 10.9667 14.893 10.9667 15.1251 11.1007C15.3571 11.2347 15.4999 11.4822 15.4999 11.7502ZM15.4399 0.96494C15.402 0.874037 15.3487 0.790414 15.2824 0.717466C15.2095 0.651171 15.1259 0.597933 15.035 0.560017C14.9448 0.521471 14.848 0.501131 14.75 0.5H9.50006C9.23212 0.5 8.98452 0.642885 8.85055 0.874914C8.71658 1.10695 8.71658 1.39296 8.85055 1.625C8.98452 1.85703 9.23212 1.99991 9.50006 1.99991H12.9426L7.46767 7.46741C7.32566 7.60829 7.24569 7.7999 7.24569 7.99989C7.24569 8.19988 7.32554 8.39152 7.46754 8.53237C7.60842 8.67438 7.80003 8.75423 8.00002 8.75423C8.20002 8.75423 8.39165 8.67437 8.5325 8.53237L14 3.05748V6.49998C14 6.76792 14.1429 7.01552 14.3749 7.14949C14.6069 7.28346 14.893 7.28346 15.125 7.14949C15.357 7.01552 15.4999 6.76792 15.4999 6.49998V1.25009C15.4988 1.15202 15.4784 1.05509 15.4399 0.96494Z" fill="white"/>
</svg>
